<svg width="32" height="32" viewBox="0 0 32 32" fill="none" xmlns="http://www.w3.org/2000/svg">
<g clip-path="url(#clip0_15_19)">
<path d="M5.33333 2.66663H26.6667C27.4031 2.66663 28 3.26359 28 3.99996V28C28 28.7364 27.4031 29.3333 26.6667 29.3333H5.33333C4.59696 29.3333 4 28.7364 4 28V3.99996C4 3.26359 4.59696 2.66663 5.33333 2.66663ZM9.33333 16V18.6666H12V16H9.33333ZM9.33333 21.3333V24H12V21.3333H9.33333ZM14.6667 16V18.6666H17.3333V16H14.6667ZM14.6667 21.3333V24H17.3333V21.3333H14.6667ZM20 16V24H22.6667V16H20ZM9.33333 7.99996V13.3333H22.6667V7.99996H9.33333Z" fill="white"/>
</g>
<defs>
<clipPath id="clip0_15_19">
<rect width="32" height="32" fill="white"/>
</clipPath>
</defs>
</svg>
